<svg viewBox="0 0 800 1000" width="100%" xmlns="http://www.w3.org/2000/svg" role="img" aria-labelledby="infographic-title" font-family="'Inter', 'Segoe UI', Arial, sans-serif">
  <title id="infographic-title">Kenyan Customer Search Behaviour — Query Patterns by Industry and Intent Type</title>
  <defs>
    <linearGradient id="hdrGrad" x1="0%" y1="0%" x2="100%" y2="0%">
      <stop offset="0%" style="stop-color:#1A1A2E"/>
      <stop offset="100%" style="stop-color:#16213E"/>
    </linearGradient>
  </defs>

  <!-- Background -->
  <rect width="800" height="1000" fill="#F5F5F5"/>

  <!-- Header -->
  <rect width="800" height="68" fill="url(#hdrGrad)"/>
  <text x="400" y="28" text-anchor="middle" fill="#FFFFFF" font-size="15" font-weight="700" letter-spacing="0.5">KENYAN CUSTOMER SEARCH BEHAVIOUR</text>
  <text x="400" y="50" text-anchor="middle" fill="#E94560" font-size="11" font-weight="600">Query Patterns by Industry and Intent Type</text>

  <!-- Intent type legend -->
  <rect x="30" y="78" width="14" height="14" rx="3" fill="#1A1A2E"/>
  <text x="50" y="90" fill="#2C2C2C" font-size="10">Informational</text>
  <rect x="160" y="78" width="14" height="14" rx="3" fill="#E94560"/>
  <text x="180" y="90" fill="#2C2C2C" font-size="10">Commercial Intent</text>
  <rect x="320" y="78" width="14" height="14" rx="3" fill="#16213E"/>
  <text x="340" y="90" fill="#2C2C2C" font-size="10">Transactional</text>
  <rect x="470" y="78" width="14" height="14" rx="3" fill="#888"/>
  <text x="490" y="90" fill="#2C2C2C" font-size="10">Navigational / Local</text>

  <!-- MATRIX TABLE -->
  <!-- Column headers -->
  <rect x="30" y="103" width="740" height="32" rx="4" fill="#1A1A2E"/>
  <text x="120" y="123" text-anchor="middle" fill="#FFFFFF" font-size="10" font-weight="700">INDUSTRY / PERSONA</text>
  <text x="290" y="123" text-anchor="middle" fill="#FFFFFF" font-size="10" font-weight="700">INFORMATIONAL QUERIES</text>
  <text x="490" y="123" text-anchor="middle" fill="#FFFFFF" font-size="10" font-weight="700">COMMERCIAL QUERIES</text>
  <text x="680" y="123" text-anchor="middle" fill="#FFFFFF" font-size="10" font-weight="700">TRANSACTIONAL QUERIES</text>
  <!-- Vertical dividers -->
  <line x1="215" y1="103" x2="215" y2="135" stroke="#FFFFFF" stroke-width="0.5"/>
  <line x1="385" y1="103" x2="385" y2="135" stroke="#FFFFFF" stroke-width="0.5"/>
  <line x1="585" y1="103" x2="585" y2="135" stroke="#FFFFFF" stroke-width="0.5"/>

  <!-- Row 1: Industrial/Procurement -->
  <rect x="30" y="135" width="740" height="78" rx="0" fill="#FFFFFF" stroke="#ddd" stroke-width="0.5"/>
  <rect x="30" y="135" width="5" height="78" fill="#1A1A2E"/>
  <!-- Persona label -->
  <text x="48" y="155" fill="#1A1A2E" font-size="9.5" font-weight="700">Industrial /</text>
  <text x="48" y="168" fill="#1A1A2E" font-size="9.5" font-weight="700">Procurement Mgr</text>
  <text x="48" y="183" fill="#888" font-size="8">Nairobi Industrial Area</text>
  <text x="48" y="196" fill="#888" font-size="8">Mombasa Port Area</text>
  <!-- Informational queries -->
  <rect x="220" y="142" width="158" height="15" rx="3" fill="#1A1A2E" fill-opacity="0.1"/>
  <text x="299" y="153" text-anchor="middle" fill="#1A1A2E" font-size="7.5">ISO certification requirements Kenya</text>
  <rect x="220" y="161" width="158" height="15" rx="3" fill="#1A1A2E" fill-opacity="0.1"/>
  <text x="299" y="172" text-anchor="middle" fill="#1A1A2E" font-size="7.5">how to evaluate generator suppliers Kenya</text>
  <rect x="220" y="180" width="158" height="15" rx="3" fill="#1A1A2E" fill-opacity="0.1"/>
  <text x="299" y="191" text-anchor="middle" fill="#1A1A2E" font-size="7.5">KEBS approved supplier Kenya</text>
  <text x="299" y="205" text-anchor="middle" fill="#888" font-size="7">hydraulic press calibration service Kenya</text>
  <!-- Commercial queries -->
  <rect x="390" y="142" width="188" height="15" rx="3" fill="#E94560" fill-opacity="0.1"/>
  <text x="484" y="153" text-anchor="middle" fill="#E94560" font-size="7.5">500KVA Cummins dealer Nairobi</text>
  <rect x="390" y="161" width="188" height="15" rx="3" fill="#E94560" fill-opacity="0.1"/>
  <text x="484" y="172" text-anchor="middle" fill="#E94560" font-size="7.5">generator supplier Nairobi Industrial Area</text>
  <rect x="390" y="180" width="188" height="15" rx="3" fill="#E94560" fill-opacity="0.1"/>
  <text x="484" y="191" text-anchor="middle" fill="#E94560" font-size="7.5">forklift hire Nairobi — approved supplier</text>
  <text x="484" y="205" text-anchor="middle" fill="#888" font-size="7">industrial air compressor Kenya price</text>
  <!-- Transactional queries -->
  <rect x="590" y="142" width="175" height="15" rx="3" fill="#16213E" fill-opacity="0.1"/>
  <text x="677" y="153" text-anchor="middle" fill="#16213E" font-size="7.5">RFQ generator 500KVA [brand] Kenya</text>
  <rect x="590" y="161" width="175" height="15" rx="3" fill="#16213E" fill-opacity="0.1"/>
  <text x="677" y="172" text-anchor="middle" fill="#16213E" font-size="7.5">approved supplier [parastatal] Kenya</text>
  <rect x="590" y="180" width="175" height="15" rx="3" fill="#16213E" fill-opacity="0.1"/>
  <text x="677" y="191" text-anchor="middle" fill="#16213E" font-size="7.5">equipment tender Kenya IFMIS</text>

  <!-- Row 2: Schools/Parents -->
  <rect x="30" y="213" width="740" height="78" rx="0" fill="#F5F5F5" stroke="#ddd" stroke-width="0.5"/>
  <rect x="30" y="213" width="5" height="78" fill="#E94560"/>
  <text x="48" y="233" fill="#1A1A2E" font-size="9.5" font-weight="700">Parent Searching</text>
  <text x="48" y="246" fill="#1A1A2E" font-size="9.5" font-weight="700">Schools</text>
  <text x="48" y="261" fill="#888" font-size="8">CBC curriculum</text>
  <text x="48" y="274" fill="#888" font-size="8">Nairobi / suburbs</text>
  <rect x="220" y="220" width="158" height="15" rx="3" fill="#1A1A2E" fill-opacity="0.08"/>
  <text x="299" y="231" text-anchor="middle" fill="#1A1A2E" font-size="7.5">what is CBC curriculum Kenya 2025</text>
  <rect x="220" y="239" width="158" height="15" rx="3" fill="#1A1A2E" fill-opacity="0.08"/>
  <text x="299" y="250" text-anchor="middle" fill="#1A1A2E" font-size="7.5">difference boarding vs day school Kenya</text>
  <rect x="220" y="258" width="158" height="15" rx="3" fill="#1A1A2E" fill-opacity="0.08"/>
  <text x="299" y="269" text-anchor="middle" fill="#1A1A2E" font-size="7.5">KCSE mean grade history [school name]</text>
  <rect x="390" y="220" width="188" height="15" rx="3" fill="#E94560" fill-opacity="0.08"/>
  <text x="484" y="231" text-anchor="middle" fill="#E94560" font-size="7.5">junior school Karen Nairobi fees 2025</text>
  <rect x="390" y="239" width="188" height="15" rx="3" fill="#E94560" fill-opacity="0.08"/>
  <text x="484" y="250" text-anchor="middle" fill="#E94560" font-size="7.5">best CBC primary school Westlands</text>
  <rect x="390" y="258" width="188" height="15" rx="3" fill="#E94560" fill-opacity="0.08"/>
  <text x="484" y="269" text-anchor="middle" fill="#E94560" font-size="7.5">school fees breakdown term 1 2025</text>
  <rect x="590" y="220" width="175" height="15" rx="3" fill="#16213E" fill-opacity="0.08"/>
  <text x="677" y="231" text-anchor="middle" fill="#16213E" font-size="7.5">enrollment open 2026 January term</text>
  <rect x="590" y="239" width="175" height="15" rx="3" fill="#16213E" fill-opacity="0.08"/>
  <text x="677" y="250" text-anchor="middle" fill="#16213E" font-size="7.5">WhatsApp [school name] enrollment</text>
  <text x="677" y="282" text-anchor="middle" fill="#888" font-size="7">admission requirements Form 1 Kenya</text>

  <!-- Row 3: Property Buyer -->
  <rect x="30" y="291" width="740" height="78" rx="0" fill="#FFFFFF" stroke="#ddd" stroke-width="0.5"/>
  <rect x="30" y="291" width="5" height="78" fill="#1A1A2E"/>
  <text x="48" y="311" fill="#1A1A2E" font-size="9.5" font-weight="700">Nairobi Property</text>
  <text x="48" y="324" fill="#1A1A2E" font-size="9.5" font-weight="700">Buyer</text>
  <text x="48" y="339" fill="#888" font-size="8">Kilimani, Runda,</text>
  <text x="48" y="352" fill="#888" font-size="8">Westlands, Karen</text>
  <rect x="220" y="298" width="158" height="15" rx="3" fill="#1A1A2E" fill-opacity="0.08"/>
  <text x="299" y="309" text-anchor="middle" fill="#1A1A2E" font-size="7.5">title deed verification process Kenya</text>
  <rect x="220" y="317" width="158" height="15" rx="3" fill="#1A1A2E" fill-opacity="0.08"/>
  <text x="299" y="328" text-anchor="middle" fill="#1A1A2E" font-size="7.5">stamp duty calculation Kenya 2025</text>
  <rect x="220" y="336" width="158" height="15" rx="3" fill="#1A1A2E" fill-opacity="0.08"/>
  <text x="299" y="347" text-anchor="middle" fill="#1A1A2E" font-size="7.5">housing loan Kenya mortgage process</text>
  <rect x="390" y="298" width="188" height="15" rx="3" fill="#E94560" fill-opacity="0.08"/>
  <text x="484" y="309" text-anchor="middle" fill="#E94560" font-size="7.5">apartments Kilimani for sale Ksh 8M</text>
  <rect x="390" y="317" width="188" height="15" rx="3" fill="#E94560" fill-opacity="0.08"/>
  <text x="484" y="328" text-anchor="middle" fill="#E94560" font-size="7.5">hass consult property report Kenya 2025</text>
  <rect x="390" y="336" width="188" height="15" rx="3" fill="#E94560" fill-opacity="0.08"/>
  <text x="484" y="347" text-anchor="middle" fill="#E94560" font-size="7.5">3 bedroom off-plan Ruiru developer rep</text>
  <rect x="590" y="298" width="175" height="15" rx="3" fill="#16213E" fill-opacity="0.08"/>
  <text x="677" y="309" text-anchor="middle" fill="#16213E" font-size="7.5">buy apartment Kilimani WhatsApp agent</text>
  <rect x="590" y="317" width="175" height="15" rx="3" fill="#16213E" fill-opacity="0.08"/>
  <text x="677" y="328" text-anchor="middle" fill="#16213E" font-size="7.5">land for sale near Ngong Road price</text>
  <text x="677" y="360" text-anchor="middle" fill="#888" font-size="7">school near Runda estate property</text>

  <!-- Row 4: SME Owner -->
  <rect x="30" y="369" width="740" height="78" rx="0" fill="#F5F5F5" stroke="#ddd" stroke-width="0.5"/>
  <rect x="30" y="369" width="5" height="78" fill="#E94560"/>
  <text x="48" y="389" fill="#1A1A2E" font-size="9.5" font-weight="700">SME Owner</text>
  <text x="48" y="402" fill="#1A1A2E" font-size="9.5" font-weight="700">Evaluating Service</text>
  <text x="48" y="417" fill="#888" font-size="8">Nairobi CBD</text>
  <text x="48" y="430" fill="#888" font-size="8">Westlands, Mombasa</text>
  <rect x="220" y="376" width="158" height="15" rx="3" fill="#1A1A2E" fill-opacity="0.08"/>
  <text x="299" y="387" text-anchor="middle" fill="#1A1A2E" font-size="7.5">how to register company Kenya 2025</text>
  <rect x="220" y="395" width="158" height="15" rx="3" fill="#1A1A2E" fill-opacity="0.08"/>
  <text x="299" y="406" text-anchor="middle" fill="#1A1A2E" font-size="7.5">what is VAT in Kenya for SMEs</text>
  <rect x="220" y="414" width="158" height="15" rx="3" fill="#1A1A2E" fill-opacity="0.08"/>
  <text x="299" y="425" text-anchor="middle" fill="#1A1A2E" font-size="7.5">NHIF obligations employer Kenya</text>
  <rect x="390" y="376" width="188" height="15" rx="3" fill="#E94560" fill-opacity="0.08"/>
  <text x="484" y="387" text-anchor="middle" fill="#E94560" font-size="7.5">website design cost Nairobi 2025</text>
  <rect x="390" y="395" width="188" height="15" rx="3" fill="#E94560" fill-opacity="0.08"/>
  <text x="484" y="406" text-anchor="middle" fill="#E94560" font-size="7.5">bei ya website Kenya (Swahili price query)</text>
  <rect x="390" y="414" width="188" height="15" rx="3" fill="#E94560" fill-opacity="0.08"/>
  <text x="484" y="425" text-anchor="middle" fill="#E94560" font-size="7.5">best SEO agency Nairobi reviews</text>
  <rect x="590" y="376" width="175" height="15" rx="3" fill="#16213E" fill-opacity="0.08"/>
  <text x="677" y="387" text-anchor="middle" fill="#16213E" font-size="7.5">hire web designer Nairobi WhatsApp</text>
  <rect x="590" y="395" width="175" height="15" rx="3" fill="#16213E" fill-opacity="0.08"/>
  <text x="677" y="406" text-anchor="middle" fill="#16213E" font-size="7.5">buy accounting software Kenya Ksh</text>
  <text x="677" y="438" text-anchor="middle" fill="#888" font-size="7">WordPress vs custom website Kenya</text>

  <!-- Row 5: Medical/Dental Patient -->
  <rect x="30" y="447" width="740" height="78" rx="0" fill="#FFFFFF" stroke="#ddd" stroke-width="0.5"/>
  <rect x="30" y="447" width="5" height="78" fill="#16213E"/>
  <text x="48" y="467" fill="#1A1A2E" font-size="9.5" font-weight="700">Medical /</text>
  <text x="48" y="480" fill="#1A1A2E" font-size="9.5" font-weight="700">Dental Patient</text>
  <text x="48" y="495" fill="#888" font-size="8">Nairobi, Mombasa</text>
  <text x="48" y="508" fill="#888" font-size="8">Kisumu patients</text>
  <rect x="220" y="454" width="158" height="15" rx="3" fill="#1A1A2E" fill-opacity="0.08"/>
  <text x="299" y="465" text-anchor="middle" fill="#1A1A2E" font-size="7.5">baby vaccination schedule Kenya MoH</text>
  <rect x="220" y="473" width="158" height="15" rx="3" fill="#1A1A2E" fill-opacity="0.08"/>
  <text x="299" y="484" text-anchor="middle" fill="#1A1A2E" font-size="7.5">signs of diabetes in Kenya</text>
  <rect x="220" y="492" width="158" height="15" rx="3" fill="#1A1A2E" fill-opacity="0.08"/>
  <text x="299" y="503" text-anchor="middle" fill="#1A1A2E" font-size="7.5">how to prepare for root canal Kenya</text>
  <rect x="390" y="454" width="188" height="15" rx="3" fill="#E94560" fill-opacity="0.08"/>
  <text x="484" y="465" text-anchor="middle" fill="#E94560" font-size="7.5">cost dental implants Nairobi 2025</text>
  <rect x="390" y="473" width="188" height="15" rx="3" fill="#E94560" fill-opacity="0.08"/>
  <text x="484" y="484" text-anchor="middle" fill="#E94560" font-size="7.5">NHIF accredited dentist Westlands</text>
  <rect x="390" y="492" width="188" height="15" rx="3" fill="#E94560" fill-opacity="0.08"/>
  <text x="484" y="503" text-anchor="middle" fill="#E94560" font-size="7.5">SHA approved clinic Kilimani Nairobi</text>
  <rect x="590" y="454" width="175" height="15" rx="3" fill="#16213E" fill-opacity="0.08"/>
  <text x="677" y="465" text-anchor="middle" fill="#16213E" font-size="7.5">book dentist Westlands WhatsApp</text>
  <rect x="590" y="473" width="175" height="15" rx="3" fill="#16213E" fill-opacity="0.08"/>
  <text x="677" y="484" text-anchor="middle" fill="#16213E" font-size="7.5">pediatrician near me Nairobi open now</text>
  <text x="677" y="516" text-anchor="middle" fill="#888" font-size="7">orthodontist braces Ksh price Karen</text>

  <!-- Swahili Query Patterns Section -->
  <rect x="30" y="537" width="740" height="88" rx="6" fill="#1A1A2E"/>
  <text x="400" y="557" text-anchor="middle" fill="#E94560" font-size="12" font-weight="700">HIGH-VALUE SWAHILI QUERY PATTERNS (Often missed by competitors)</text>
  <!-- Swahili patterns -->
  <rect x="48" y="563" width="105" height="22" rx="4" fill="#E94560"/>
  <text x="100.5" y="578" text-anchor="middle" fill="#FFFFFF" font-size="8" font-weight="700">"bei ya" + service</text>
  <rect x="163" y="563" width="105" height="22" rx="4" fill="#E94560"/>
  <text x="215.5" y="578" text-anchor="middle" fill="#FFFFFF" font-size="8" font-weight="700">"jinsi ya" + action</text>
  <rect x="278" y="563" width="118" height="22" rx="4" fill="#E94560"/>
  <text x="337" y="578" text-anchor="middle" fill="#FFFFFF" font-size="8" font-weight="700">"karibu na mimi" (near me)</text>
  <rect x="406" y="563" width="95" height="22" rx="4" fill="#E94560"/>
  <text x="453.5" y="578" text-anchor="middle" fill="#FFFFFF" font-size="8" font-weight="700">"hospitali" / "daktari"</text>
  <rect x="511" y="563" width="95" height="22" rx="4" fill="#E94560"/>
  <text x="558.5" y="578" text-anchor="middle" fill="#FFFFFF" font-size="8" font-weight="700">"shule" / "nyumba"</text>
  <rect x="616" y="563" width="140" height="22" rx="4" fill="#E94560"/>
  <text x="686" y="578" text-anchor="middle" fill="#FFFFFF" font-size="8" font-weight="700">"sasa hivi" (urgent intent)</text>
  <text x="400" y="608" text-anchor="middle" fill="#aaaacc" font-size="8.5">Recommended: English-primary pages with Swahili keywords naturally embedded — captures bilingual search without doubling content effort</text>

  <!-- Question format patterns -->
  <rect x="30" y="635" width="740" height="75" rx="6" fill="#FFFFFF" stroke="#1A1A2E" stroke-width="1"/>
  <text x="400" y="655" text-anchor="middle" fill="#1A1A2E" font-size="11" font-weight="700">DOMINANT QUESTION-FORMAT QUERY PATTERNS IN KENYA</text>
  <!-- Pattern bars -->
  <rect x="48" y="663" width="155" height="26" rx="4" fill="#F5F5F5" stroke="#1A1A2E" stroke-width="0.8"/>
  <text x="125.5" y="674" text-anchor="middle" fill="#1A1A2E" font-size="8" font-weight="600">"how to [action] in Kenya"</text>
  <text x="125.5" y="684" text-anchor="middle" fill="#888" font-size="7">Informational — high volume</text>
  <rect x="213" y="663" width="155" height="26" rx="4" fill="#F5F5F5" stroke="#1A1A2E" stroke-width="0.8"/>
  <text x="290.5" y="674" text-anchor="middle" fill="#1A1A2E" font-size="8" font-weight="600">"what is [term] in Kenya"</text>
  <text x="290.5" y="684" text-anchor="middle" fill="#888" font-size="7">Definition-seeking — Featured Snippet</text>
  <rect x="378" y="663" width="155" height="26" rx="4" fill="#F5F5F5" stroke="#1A1A2E" stroke-width="0.8"/>
  <text x="455.5" y="674" text-anchor="middle" fill="#1A1A2E" font-size="8" font-weight="600">"best [category] Nairobi [year]"</text>
  <text x="455.5" y="684" text-anchor="middle" fill="#888" font-size="7">Comparison — commercial intent</text>
  <rect x="543" y="663" width="145" height="26" rx="4" fill="#F5F5F5" stroke="#1A1A2E" stroke-width="0.8"/>
  <text x="615.5" y="674" text-anchor="middle" fill="#1A1A2E" font-size="8" font-weight="600">"[service] cost Nairobi Ksh"</text>
  <text x="615.5" y="684" text-anchor="middle" fill="#888" font-size="7">Price-seeking — near transactional</text>
  <rect x="698" y="663" width="68" height="26" rx="4" fill="#E94560"/>
  <text x="732" y="674" text-anchor="middle" fill="#FFFFFF" font-size="8" font-weight="700">Featured</text>
  <text x="732" y="684" text-anchor="middle" fill="#FFFFFF" font-size="7">Snippet ✓</text>

  <!-- Research methodology -->
  <rect x="30" y="720" width="360" height="100" rx="6" fill="#16213E"/>
  <text x="210" y="740" text-anchor="middle" fill="#FFFFFF" font-size="11" font-weight="700">KEYWORD RESEARCH METHODOLOGY</text>
  <text x="210" y="757" text-anchor="middle" fill="#aaaacc" font-size="9">1. Google Suggest on Google.co.ke (autocomplete)</text>
  <text x="210" y="772" text-anchor="middle" fill="#aaaacc" font-size="9">2. Google Keyword Planner — filtered to Kenya</text>
  <text x="210" y="787" text-anchor="middle" fill="#aaaacc" font-size="9">3. Google Search Console — actual Kenyan queries</text>
  <text x="210" y="802" text-anchor="middle" fill="#aaaacc" font-size="9">4. Manual SERP analysis — what ranks, what it covers</text>

  <!-- Content types -->
  <rect x="400" y="720" width="370" height="100" rx="6" fill="#F5F5F5" stroke="#1A1A2E" stroke-width="1"/>
  <text x="585" y="740" text-anchor="middle" fill="#1A1A2E" font-size="11" font-weight="700">6 CONTENT TYPES FOR KENYAN SEO</text>
  <text x="416" y="757" fill="#E94560" font-size="9" font-weight="600">1</text><text x="428" y="757" fill="#2C2C2C" font-size="9"> Service/Product Pages — commercial core</text>
  <text x="416" y="771" fill="#E94560" font-size="9" font-weight="600">2</text><text x="428" y="771" fill="#2C2C2C" font-size="9"> Location Pages — service + Kenyan geography</text>
  <text x="416" y="785" fill="#E94560" font-size="9" font-weight="600">3</text><text x="428" y="785" fill="#2C2C2C" font-size="9"> Educational Blog — informational authority</text>
  <text x="585" y="757" fill="#E94560" font-size="9" font-weight="600">4</text><text x="597" y="757" fill="#2C2C2C" font-size="9"> Kenya Case Studies — late-stage buyers</text>
  <text x="585" y="771" fill="#E94560" font-size="9" font-weight="600">5</text><text x="597" y="771" fill="#2C2C2C" font-size="9"> FAQ Pages — Featured Snippet capture</text>
  <text x="585" y="785" fill="#E94560" font-size="9" font-weight="600">6</text><text x="597" y="785" fill="#2C2C2C" font-size="9"> Comparison Pages — highest commercial intent</text>
  <text x="585" y="810" text-anchor="middle" fill="#888" font-size="8">Topical depth beats page count — define, don't just mention</text>

  <!-- Bottom stat bar -->
  <rect x="30" y="830" width="740" height="50" rx="6" fill="#E94560"/>
  <text x="400" y="852" text-anchor="middle" fill="#FFFFFF" font-size="11" font-weight="700">KENYAN COMPETITIVE ADVANTAGE</text>
  <text x="400" y="869" text-anchor="middle" fill="#FFFFFF" font-size="9">Most Kenyan B2B websites have thin, unstrategic content — one comprehensive site covering all sub-topics of a niche</text>
  <text x="400" y="882" text-anchor="middle" fill="#FFFFFF" font-size="9">can outrank 6 competitors with thin service pages. Topical authority builds in 3–9 months.</text>

  <!-- Footer -->
  <text x="400" y="975" text-anchor="middle" fill="#999" font-size="11">tupate.studio</text>
</svg>
