<svg xmlns="http://www.w3.org/2000/svg" viewBox="0 0 800 620" width="100%" height="auto" role="img" aria-labelledby="infographic-title-2">
  <title id="infographic-title-2">How Google Ranks Kenyan Business Websites: 3-Pillar SEO Framework</title>

  <!-- Background -->
  <rect width="800" height="620" fill="#F5F5F5" rx="12"/>

  <!-- Header band -->
  <rect width="800" height="80" fill="#1A1A2E" rx="12"/>
  <rect x="0" y="68" width="800" height="12" fill="#1A1A2E"/>
  <text x="400" y="36" text-anchor="middle" font-family="Inter, Segoe UI, Arial, sans-serif" font-size="20" font-weight="700" fill="#FFFFFF">How Google Ranks Kenyan Business Websites</text>
  <text x="400" y="60" text-anchor="middle" font-family="Inter, Segoe UI, Arial, sans-serif" font-size="13" fill="#E94560">The 3-Pillar SEO Framework</text>

  <!-- Pillar 1 - Technical SEO -->
  <rect x="40" y="100" width="218" height="380" fill="#1A1A2E" rx="8"/>
  <rect x="40" y="100" width="218" height="50" fill="#0F3460" rx="8"/>
  <rect x="40" y="130" width="218" height="20" fill="#0F3460"/>
  <text x="149" y="132" text-anchor="middle" font-family="Inter, Segoe UI, Arial, sans-serif" font-size="13" font-weight="700" fill="#FFFFFF">01</text>
  <text x="149" y="148" text-anchor="middle" font-family="Inter, Segoe UI, Arial, sans-serif" font-size="15" font-weight="700" fill="#FFFFFF">Technical SEO</text>

  <!-- Pillar 1 items -->
  <rect x="55" y="165" width="188" height="42" fill="#16213E" rx="5"/>
  <text x="75" y="183" font-family="Inter, Segoe UI, Arial, sans-serif" font-size="12" font-weight="700" fill="#E94560">Crawlability</text>
  <text x="75" y="199" font-family="Inter, Segoe UI, Arial, sans-serif" font-size="11" fill="#CCCCCC">robots.txt + XML sitemap</text>

  <rect x="55" y="215" width="188" height="42" fill="#16213E" rx="5"/>
  <text x="75" y="233" font-family="Inter, Segoe UI, Arial, sans-serif" font-size="12" font-weight="700" fill="#E94560">Core Web Vitals</text>
  <text x="75" y="249" font-family="Inter, Segoe UI, Arial, sans-serif" font-size="11" fill="#CCCCCC">LCP, INP, CLS scores</text>

  <rect x="55" y="265" width="188" height="42" fill="#16213E" rx="5"/>
  <text x="75" y="283" font-family="Inter, Segoe UI, Arial, sans-serif" font-size="12" font-weight="700" fill="#E94560">Schema Markup</text>
  <text x="75" y="299" font-family="Inter, Segoe UI, Arial, sans-serif" font-size="11" fill="#CCCCCC">LocalBusiness, Product JSON-LD</text>

  <rect x="55" y="315" width="188" height="42" fill="#16213E" rx="5"/>
  <text x="75" y="333" font-family="Inter, Segoe UI, Arial, sans-serif" font-size="12" font-weight="700" fill="#E94560">HTTPS Security</text>
  <text x="75" y="349" font-family="Inter, Segoe UI, Arial, sans-serif" font-size="11" fill="#CCCCCC">SSL + secure hosting</text>

  <rect x="55" y="365" width="188" height="42" fill="#16213E" rx="5"/>
  <text x="75" y="383" font-family="Inter, Segoe UI, Arial, sans-serif" font-size="12" font-weight="700" fill="#E94560">Mobile-First Index</text>
  <text x="75" y="399" font-family="Inter, Segoe UI, Arial, sans-serif" font-size="11" fill="#CCCCCC">Responsive + fast on 4G</text>

  <rect x="55" y="415" width="188" height="42" fill="#16213E" rx="5"/>
  <text x="75" y="433" font-family="Inter, Segoe UI, Arial, sans-serif" font-size="12" font-weight="700" fill="#E94560">URL Structure</text>
  <text x="75" y="449" font-family="Inter, Segoe UI, Arial, sans-serif" font-size="11" fill="#CCCCCC">Clean, descriptive slugs</text>

  <!-- Pillar 2 - On-Page SEO -->
  <rect x="291" y="100" width="218" height="380" fill="#1A1A2E" rx="8"/>
  <rect x="291" y="100" width="218" height="50" fill="#E94560" rx="8"/>
  <rect x="291" y="130" width="218" height="20" fill="#E94560"/>
  <text x="400" y="132" text-anchor="middle" font-family="Inter, Segoe UI, Arial, sans-serif" font-size="13" font-weight="700" fill="#FFFFFF">02</text>
  <text x="400" y="148" text-anchor="middle" font-family="Inter, Segoe UI, Arial, sans-serif" font-size="15" font-weight="700" fill="#FFFFFF">On-Page SEO</text>

  <!-- Pillar 2 items -->
  <rect x="306" y="165" width="188" height="42" fill="#16213E" rx="5"/>
  <text x="326" y="183" font-family="Inter, Segoe UI, Arial, sans-serif" font-size="12" font-weight="700" fill="#E94560">Title Tags</text>
  <text x="326" y="199" font-family="Inter, Segoe UI, Arial, sans-serif" font-size="11" fill="#CCCCCC">Keyword + location + brand</text>

  <rect x="306" y="215" width="188" height="42" fill="#16213E" rx="5"/>
  <text x="326" y="233" font-family="Inter, Segoe UI, Arial, sans-serif" font-size="12" font-weight="700" fill="#E94560">Content Depth</text>
  <text x="326" y="249" font-family="Inter, Segoe UI, Arial, sans-serif" font-size="11" fill="#CCCCCC">Topical coverage + EAV</text>

  <rect x="306" y="265" width="188" height="42" fill="#16213E" rx="5"/>
  <text x="326" y="283" font-family="Inter, Segoe UI, Arial, sans-serif" font-size="12" font-weight="700" fill="#E94560">Heading Hierarchy</text>
  <text x="326" y="299" font-family="Inter, Segoe UI, Arial, sans-serif" font-size="11" fill="#CCCCCC">H1 → H2 → H3 structure</text>

  <rect x="306" y="315" width="188" height="42" fill="#16213E" rx="5"/>
  <text x="326" y="333" font-family="Inter, Segoe UI, Arial, sans-serif" font-size="12" font-weight="700" fill="#E94560">Images</text>
  <text x="326" y="349" font-family="Inter, Segoe UI, Arial, sans-serif" font-size="11" fill="#CCCCCC">Alt text + WebP format</text>

  <rect x="306" y="365" width="188" height="42" fill="#16213E" rx="5"/>
  <text x="326" y="383" font-family="Inter, Segoe UI, Arial, sans-serif" font-size="12" font-weight="700" fill="#E94560">Meta Descriptions</text>
  <text x="326" y="399" font-family="Inter, Segoe UI, Arial, sans-serif" font-size="11" fill="#CCCCCC">Click-through optimised</text>

  <rect x="306" y="415" width="188" height="42" fill="#16213E" rx="5"/>
  <text x="326" y="433" font-family="Inter, Segoe UI, Arial, sans-serif" font-size="12" font-weight="700" fill="#E94560">Internal Linking</text>
  <text x="326" y="449" font-family="Inter, Segoe UI, Arial, sans-serif" font-size="11" fill="#CCCCCC">Contextual bridges between pages</text>

  <!-- Pillar 3 - Local SEO -->
  <rect x="542" y="100" width="218" height="380" fill="#1A1A2E" rx="8"/>
  <rect x="542" y="100" width="218" height="50" fill="#16213E" rx="8"/>
  <rect x="542" y="130" width="218" height="20" fill="#16213E"/>
  <line x1="542" y1="100" x2="760" y2="100" stroke="#4A90D9" stroke-width="3"/>
  <text x="651" y="132" text-anchor="middle" font-family="Inter, Segoe UI, Arial, sans-serif" font-size="13" font-weight="700" fill="#4A90D9">03</text>
  <text x="651" y="148" text-anchor="middle" font-family="Inter, Segoe UI, Arial, sans-serif" font-size="15" font-weight="700" fill="#FFFFFF">Local SEO</text>

  <!-- Pillar 3 items -->
  <rect x="557" y="165" width="188" height="42" fill="#16213E" rx="5"/>
  <text x="577" y="183" font-family="Inter, Segoe UI, Arial, sans-serif" font-size="12" font-weight="700" fill="#E94560">Google Business Profile</text>
  <text x="577" y="199" font-family="Inter, Segoe UI, Arial, sans-serif" font-size="11" fill="#CCCCCC">Verified + fully optimised</text>

  <rect x="557" y="215" width="188" height="42" fill="#16213E" rx="5"/>
  <text x="577" y="233" font-family="Inter, Segoe UI, Arial, sans-serif" font-size="12" font-weight="700" fill="#E94560">NAP Citations</text>
  <text x="577" y="249" font-family="Inter, Segoe UI, Arial, sans-serif" font-size="11" fill="#CCCCCC">Consistent across directories</text>

  <rect x="557" y="265" width="188" height="42" fill="#16213E" rx="5"/>
  <text x="577" y="283" font-family="Inter, Segoe UI, Arial, sans-serif" font-size="12" font-weight="700" fill="#E94560">Customer Reviews</text>
  <text x="577" y="299" font-family="Inter, Segoe UI, Arial, sans-serif" font-size="11" fill="#CCCCCC">4.5★+ on Google Maps</text>

  <rect x="557" y="315" width="188" height="42" fill="#16213E" rx="5"/>
  <text x="577" y="333" font-family="Inter, Segoe UI, Arial, sans-serif" font-size="12" font-weight="700" fill="#E94560">Location Pages</text>
  <text x="577" y="349" font-family="Inter, Segoe UI, Arial, sans-serif" font-size="11" fill="#CCCCCC">Nairobi, Mombasa, Kisumu…</text>

  <rect x="557" y="365" width="188" height="42" fill="#16213E" rx="5"/>
  <text x="577" y="383" font-family="Inter, Segoe UI, Arial, sans-serif" font-size="12" font-weight="700" fill="#E94560">Local Keywords</text>
  <text x="577" y="399" font-family="Inter, Segoe UI, Arial, sans-serif" font-size="11" fill="#CCCCCC">"[service] in Nairobi Kenya"</text>

  <rect x="557" y="415" width="188" height="42" fill="#16213E" rx="5"/>
  <text x="577" y="433" font-family="Inter, Segoe UI, Arial, sans-serif" font-size="12" font-weight="700" fill="#E94560">Google Maps Embed</text>
  <text x="577" y="449" font-family="Inter, Segoe UI, Arial, sans-serif" font-size="11" fill="#CCCCCC">On contact + service pages</text>

  <!-- Base of pillars (foundation) -->
  <rect x="40" y="480" width="720" height="8" fill="#1A1A2E" rx="2"/>

  <!-- Arrow upward result -->
  <rect x="180" y="505" width="440" height="60" fill="#1A1A2E" rx="8"/>
  <!-- Arrow -->
  <polygon points="400,500 380,520 390,520 390,505 410,505 410,520 420,520" fill="#E94560"/>
  <text x="400" y="533" text-anchor="middle" font-family="Inter, Segoe UI, Arial, sans-serif" font-size="15" font-weight="700" fill="#FFFFFF">Higher Rankings on Google.co.ke</text>
  <text x="400" y="553" text-anchor="middle" font-family="Inter, Segoe UI, Arial, sans-serif" font-size="12" fill="#CCCCCC">More Kenyan customers find your business first</text>

  <!-- Footer -->
  <text x="400" y="606" text-anchor="middle" font-family="Inter, Segoe UI, Arial, sans-serif" font-size="11" fill="#999999">tupate.studio</text>
</svg>
