<svg xmlns="http://www.w3.org/2000/svg" viewBox="0 0 800 660" width="100%" height="auto" role="img" aria-labelledby="infographic-title-5">
  <title id="infographic-title-5">9 Signs Your Kenyan Business Website Needs a Redesign</title>

  <!-- Background -->
  <rect width="800" height="660" fill="#1A1A2E" rx="12"/>

  <!-- Header -->
  <rect width="800" height="80" fill="#0A0A1A" rx="12"/>
  <rect x="0" y="68" width="800" height="12" fill="#0A0A1A"/>
  <text x="400" y="36" text-anchor="middle" font-family="Inter, Segoe UI, Arial, sans-serif" font-size="20" font-weight="700" fill="#FFFFFF">9 Signs Your Kenyan Business Website</text>
  <text x="400" y="62" text-anchor="middle" font-family="Inter, Segoe UI, Arial, sans-serif" font-size="20" font-weight="700" fill="#E94560">Needs a Redesign</text>

  <!-- Row 1 — Signs 1, 2, 3 -->
  <!-- Card 1 -->
  <rect x="30" y="100" width="228" height="158" fill="#16213E" rx="8"/>
  <rect x="30" y="100" width="228" height="8" fill="#E94560" rx="8"/>
  <rect x="75" y="120" width="138" height="60" fill="#0F3460" rx="6"/>
  <!-- Phone icon -->
  <rect x="115" y="125" width="58" height="50" fill="#16213E" rx="4" stroke="#E94560" stroke-width="2"/>
  <line x1="144" y1="170" x2="144" y2="170" stroke="#E94560" stroke-width="3" stroke-linecap="round"/>
  <text x="144" y="148" text-anchor="middle" font-family="Inter, Segoe UI, Arial, sans-serif" font-size="24" fill="#E94560">✕</text>
  <text x="144" y="155" text-anchor="middle" font-family="Inter, Segoe UI, Arial, sans-serif" font-size="8" fill="#AAAAAA">mobile</text>
  <text x="144" y="197" text-anchor="middle" font-family="Inter, Segoe UI, Arial, sans-serif" font-size="13" font-weight="700" fill="#FFFFFF">Not Mobile-Friendly</text>
  <text x="144" y="215" text-anchor="middle" font-family="Inter, Segoe UI, Arial, sans-serif" font-size="11" fill="#AAAAAA">80%+ Kenyans browse</text>
  <text x="144" y="231" text-anchor="middle" font-family="Inter, Segoe UI, Arial, sans-serif" font-size="11" fill="#AAAAAA">on mobile phones</text>
  <rect x="40" y="246" width="36" height="4" fill="#E94560" rx="2"/>

  <!-- Card 2 -->
  <rect x="286" y="100" width="228" height="158" fill="#16213E" rx="8"/>
  <rect x="286" y="100" width="228" height="8" fill="#E94560" rx="8"/>
  <rect x="331" y="120" width="138" height="60" fill="#0F3460" rx="6"/>
  <text x="400" y="157" text-anchor="middle" font-family="Inter, Segoe UI, Arial, sans-serif" font-size="30" font-weight="700" fill="#E94560">6s+</text>
  <text x="400" y="175" text-anchor="middle" font-family="Inter, Segoe UI, Arial, sans-serif" font-size="9" fill="#AAAAAA">load time</text>
  <text x="400" y="197" text-anchor="middle" font-family="Inter, Segoe UI, Arial, sans-serif" font-size="13" font-weight="700" fill="#FFFFFF">Loads in 6+ Seconds</text>
  <text x="400" y="215" text-anchor="middle" font-family="Inter, Segoe UI, Arial, sans-serif" font-size="11" fill="#AAAAAA">53% of users abandon</text>
  <text x="400" y="231" text-anchor="middle" font-family="Inter, Segoe UI, Arial, sans-serif" font-size="11" fill="#AAAAAA">slow-loading sites</text>
  <rect x="296" y="246" width="36" height="4" fill="#E94560" rx="2"/>

  <!-- Card 3 -->
  <rect x="542" y="100" width="228" height="158" fill="#16213E" rx="8"/>
  <rect x="542" y="100" width="228" height="8" fill="#E94560" rx="8"/>
  <rect x="587" y="120" width="138" height="60" fill="#0F3460" rx="6"/>
  <text x="656" y="152" text-anchor="middle" font-family="Inter, Segoe UI, Arial, sans-serif" font-size="24" fill="#E94560">📅</text>
  <text x="656" y="172" text-anchor="middle" font-family="Inter, Segoe UI, Arial, sans-serif" font-size="9" fill="#AAAAAA">3+ years old</text>
  <text x="656" y="197" text-anchor="middle" font-family="Inter, Segoe UI, Arial, sans-serif" font-size="13" font-weight="700" fill="#FFFFFF">Design Older Than 3 Yrs</text>
  <text x="656" y="215" text-anchor="middle" font-family="Inter, Segoe UI, Arial, sans-serif" font-size="11" fill="#AAAAAA">Outdated look signals</text>
  <text x="656" y="231" text-anchor="middle" font-family="Inter, Segoe UI, Arial, sans-serif" font-size="11" fill="#AAAAAA">lack of trust to visitors</text>
  <rect x="552" y="246" width="36" height="4" fill="#E94560" rx="2"/>

  <!-- Row 2 — Signs 4, 5, 6 -->
  <!-- Card 4 -->
  <rect x="30" y="275" width="228" height="158" fill="#16213E" rx="8"/>
  <rect x="30" y="275" width="228" height="8" fill="#E94560" rx="8"/>
  <rect x="75" y="295" width="138" height="60" fill="#0F3460" rx="6"/>
  <text x="144" y="332" text-anchor="middle" font-family="Inter, Segoe UI, Arial, sans-serif" font-size="26" fill="#E94560">🔓</text>
  <text x="144" y="350" text-anchor="middle" font-family="Inter, Segoe UI, Arial, sans-serif" font-size="9" fill="#AAAAAA">No SSL</text>
  <text x="144" y="372" text-anchor="middle" font-family="Inter, Segoe UI, Arial, sans-serif" font-size="13" font-weight="700" fill="#FFFFFF">No HTTPS Security</text>
  <text x="144" y="390" text-anchor="middle" font-family="Inter, Segoe UI, Arial, sans-serif" font-size="11" fill="#AAAAAA">Chrome shows "Not Secure"</text>
  <text x="144" y="406" text-anchor="middle" font-family="Inter, Segoe UI, Arial, sans-serif" font-size="11" fill="#AAAAAA">killing customer trust</text>
  <rect x="40" y="421" width="36" height="4" fill="#E94560" rx="2"/>

  <!-- Card 5 -->
  <rect x="286" y="275" width="228" height="158" fill="#16213E" rx="8"/>
  <rect x="286" y="275" width="228" height="8" fill="#E94560" rx="8"/>
  <rect x="331" y="295" width="138" height="60" fill="#0F3460" rx="6"/>
  <text x="400" y="332" text-anchor="middle" font-family="Inter, Segoe UI, Arial, sans-serif" font-size="26" fill="#E94560">📉</text>
  <text x="400" y="350" text-anchor="middle" font-family="Inter, Segoe UI, Arial, sans-serif" font-size="9" fill="#AAAAAA">Dropping</text>
  <text x="400" y="372" text-anchor="middle" font-family="Inter, Segoe UI, Arial, sans-serif" font-size="13" font-weight="700" fill="#FFFFFF">Rankings Declining</text>
  <text x="400" y="390" text-anchor="middle" font-family="Inter, Segoe UI, Arial, sans-serif" font-size="11" fill="#AAAAAA">Google rewards fresh,</text>
  <text x="400" y="406" text-anchor="middle" font-family="Inter, Segoe UI, Arial, sans-serif" font-size="11" fill="#AAAAAA">well-structured sites</text>
  <rect x="296" y="421" width="36" height="4" fill="#E94560" rx="2"/>

  <!-- Card 6 -->
  <rect x="542" y="275" width="228" height="158" fill="#16213E" rx="8"/>
  <rect x="542" y="275" width="228" height="8" fill="#E94560" rx="8"/>
  <rect x="587" y="295" width="138" height="60" fill="#0F3460" rx="6"/>
  <text x="656" y="332" text-anchor="middle" font-family="Inter, Segoe UI, Arial, sans-serif" font-size="26" fill="#E94560">↩</text>
  <text x="656" y="350" text-anchor="middle" font-family="Inter, Segoe UI, Arial, sans-serif" font-size="9" fill="#AAAAAA">Bounce Rate 80%+</text>
  <text x="656" y="372" text-anchor="middle" font-family="Inter, Segoe UI, Arial, sans-serif" font-size="13" font-weight="700" fill="#FFFFFF">High Bounce Rate</text>
  <text x="656" y="390" text-anchor="middle" font-family="Inter, Segoe UI, Arial, sans-serif" font-size="11" fill="#AAAAAA">Visitors leave immediately</text>
  <text x="656" y="406" text-anchor="middle" font-family="Inter, Segoe UI, Arial, sans-serif" font-size="11" fill="#AAAAAA">without taking action</text>
  <rect x="552" y="421" width="36" height="4" fill="#E94560" rx="2"/>

  <!-- Row 3 — Signs 7, 8, 9 -->
  <!-- Card 7 -->
  <rect x="30" y="450" width="228" height="158" fill="#16213E" rx="8"/>
  <rect x="30" y="450" width="228" height="8" fill="#E94560" rx="8"/>
  <rect x="75" y="470" width="138" height="60" fill="#0F3460" rx="6"/>
  <text x="144" y="507" text-anchor="middle" font-family="Inter, Segoe UI, Arial, sans-serif" font-size="26" fill="#E94560">?</text>
  <text x="144" y="525" text-anchor="middle" font-family="Inter, Segoe UI, Arial, sans-serif" font-size="9" fill="#AAAAAA">No button</text>
  <text x="144" y="547" text-anchor="middle" font-family="Inter, Segoe UI, Arial, sans-serif" font-size="13" font-weight="700" fill="#FFFFFF">No Clear CTA</text>
  <text x="144" y="565" text-anchor="middle" font-family="Inter, Segoe UI, Arial, sans-serif" font-size="11" fill="#AAAAAA">Visitors don't know</text>
  <text x="144" y="581" text-anchor="middle" font-family="Inter, Segoe UI, Arial, sans-serif" font-size="11" fill="#AAAAAA">what to do next</text>
  <rect x="40" y="596" width="36" height="4" fill="#E94560" rx="2"/>

  <!-- Card 8 -->
  <rect x="286" y="450" width="228" height="158" fill="#16213E" rx="8"/>
  <rect x="286" y="450" width="228" height="8" fill="#E94560" rx="8"/>
  <rect x="331" y="470" width="138" height="60" fill="#0F3460" rx="6"/>
  <text x="400" y="507" text-anchor="middle" font-family="Inter, Segoe UI, Arial, sans-serif" font-size="26" fill="#E94560">🏆</text>
  <text x="400" y="525" text-anchor="middle" font-family="Inter, Segoe UI, Arial, sans-serif" font-size="9" fill="#AAAAAA">Competitors winning</text>
  <text x="400" y="547" text-anchor="middle" font-family="Inter, Segoe UI, Arial, sans-serif" font-size="13" font-weight="700" fill="#FFFFFF">Competitors Look Better</text>
  <text x="400" y="565" text-anchor="middle" font-family="Inter, Segoe UI, Arial, sans-serif" font-size="11" fill="#AAAAAA">Your site looks dated</text>
  <text x="400" y="581" text-anchor="middle" font-family="Inter, Segoe UI, Arial, sans-serif" font-size="11" fill="#AAAAAA">vs rivals in Nairobi</text>
  <rect x="296" y="596" width="36" height="4" fill="#E94560" rx="2"/>

  <!-- Card 9 -->
  <rect x="542" y="450" width="228" height="158" fill="#16213E" rx="8"/>
  <rect x="542" y="450" width="228" height="8" fill="#E94560" rx="8"/>
  <rect x="587" y="470" width="138" height="60" fill="#0F3460" rx="6"/>
  <text x="656" y="507" text-anchor="middle" font-family="Inter, Segoe UI, Arial, sans-serif" font-size="26" fill="#E94560">🔌</text>
  <text x="656" y="525" text-anchor="middle" font-family="Inter, Segoe UI, Arial, sans-serif" font-size="9" fill="#AAAAAA">50+ plugins</text>
  <text x="656" y="547" text-anchor="middle" font-family="Inter, Segoe UI, Arial, sans-serif" font-size="13" font-weight="700" fill="#FFFFFF">WordPress Plugin Chaos</text>
  <text x="656" y="565" text-anchor="middle" font-family="Inter, Segoe UI, Arial, sans-serif" font-size="11" fill="#AAAAAA">Plugin conflicts, hacks,</text>
  <text x="656" y="581" text-anchor="middle" font-family="Inter, Segoe UI, Arial, sans-serif" font-size="11" fill="#AAAAAA">and constant updates</text>
  <rect x="552" y="596" width="36" height="4" fill="#E94560" rx="2"/>

  <!-- Footer -->
  <text x="400" y="645" text-anchor="middle" font-family="Inter, Segoe UI, Arial, sans-serif" font-size="11" fill="#999999">tupate.studio</text>
</svg>
